<svg version="1.1" id="Layer_1" xmlns="http://www.w3.org/2000/svg" xmlns:xlink="http://www.w3.org/1999/xlink" x="0px" y="0px" viewBox="0 0 512 512" style="enable-background:new 0 0 512 512;" xml:space="preserve"><g><g><g><path d="M511.143,430.77L408.156,46.417c-1.717-6.407-5.825-11.759-11.567-15.074c-5.743-3.316-12.433-4.196-18.839-2.48 l-80.021,21.442c-2.947-10.421-12.536-18.083-23.888-18.083h-66.767c-5.265,0-10.149,1.653-14.171,4.459 c-4.022-2.806-8.905-4.459-14.17-4.459h-44.947c-5.265,0-10.149,1.652-14.17,4.459c-4.022-2.807-8.906-4.459-14.17-4.459h-80.62 C11.137,32.222,0,43.358,0,57.048v397.911c0,13.69,11.137,24.827,24.826,24.827h80.62c5.265,0,10.149-1.652,14.17-4.459 c4.022,2.807,8.905,4.459,14.17,4.459h44.947c5.265,0,10.149-1.652,14.17-4.459c4.022,2.807,8.905,4.459,14.171,4.459h66.767 c13.689,0,24.826-11.137,24.826-24.827V157.606l82.525,307.985c2.969,11.078,13.025,18.404,23.987,18.403 c2.121,0,4.275-0.274,6.419-0.848l81.99-21.969c6.405-1.716,11.759-5.824,15.074-11.567 C511.979,443.866,512.86,437.175,511.143,430.77z M21.313,57.048c0-1.938,1.576-3.513,3.513-3.513h80.62 c1.937,0,3.513,1.576,3.513,3.513v298.868H21.313V57.048z M108.961,454.959c0,1.937-1.576,3.514-3.513,3.514H24.826 c-1.937,0-3.513-1.576-3.513-3.514v-35.106h87.648V454.959z M108.961,398.54H21.313v-21.313h87.648V398.54z M182.247,454.959 c0,1.937-1.576,3.514-3.513,3.514h-44.947c-1.937,0-3.513-1.576-3.513-3.514v-35.106h51.974V454.959z M182.247,398.54h-51.974 v-21.313h51.974V398.54z M182.247,355.915h-51.974V57.048c0-1.938,1.576-3.513,3.513-3.513h44.947 c1.937,0,3.513,1.576,3.513,3.513V355.915z M277.355,454.959c0,1.937-1.576,3.514-3.513,3.514h-66.767 c-1.937,0-3.514-1.576-3.514-3.514v-35.106h73.795V454.959z M277.355,398.54H203.56v-21.313h73.795V398.54z M277.355,74.724 c0,0.182-0.003,0.366,0,0.549v280.642H203.56V57.048c0-1.938,1.577-3.513,3.514-3.513h66.767c1.937,0,3.513,1.576,3.513,3.513 V74.724z M376.144,364.404L298.791,75.722c-0.327-1.223,0.079-2.195,0.352-2.667c0.272-0.47,0.91-1.31,2.133-1.637l81.991-21.969 c0.324-0.086,0.63-0.122,0.913-0.122c0.789,0,1.407,0.273,1.753,0.472c0.471,0.272,1.31,0.91,1.638,2.133l77.352,288.682 L376.144,364.404z M387.176,405.577l-5.516-20.586l88.779-23.789l4.112,15.347l1.403,5.24L387.176,405.577z M490.206,438.952 c-0.272,0.47-0.91,1.31-2.133,1.637l-81.99,21.969c-1.867,0.498-3.802-0.613-4.304-2.484l-9.087-33.913l88.779-23.787 l9.087,33.91C490.885,437.509,490.479,438.482,490.206,438.952z" fill="#000000" style="fill: rgb(255, 255, 255);"></path><path d="M65.137,165.971c-5.885,0-10.656,4.772-10.656,10.656v138.532c0,5.884,4.771,10.656,10.656,10.656 c5.885,0,10.656-4.772,10.656-10.656V176.627C75.793,170.743,71.022,165.971,65.137,165.971z" fill="#000000" style="fill: rgb(255, 255, 255);"></path><path d="M65.137,111.624c-5.885,0-10.656,4.772-10.656,10.656v3.73c0,5.884,4.771,10.656,10.656,10.656 c5.885,0,10.656-4.772,10.656-10.656v-3.73C75.793,116.396,71.022,111.624,65.137,111.624z" fill="#000000" style="fill: rgb(255, 255, 255);"></path></g></g></g></svg>